<?xml version="1.0" encoding="UTF-8" standalone="no"?>
<!-- Created with Inkscape (http://www.inkscape.org/) -->

<svg
   xmlns:dc="http://purl.org/dc/elements/1.1/"
   xmlns:cc="http://creativecommons.org/ns#"
   xmlns:rdf="http://www.w3.org/1999/02/22-rdf-syntax-ns#"
   xmlns:svg="http://www.w3.org/2000/svg"
   xmlns="http://www.w3.org/2000/svg"
   xmlns:sodipodi="http://sodipodi.sourceforge.net/DTD/sodipodi-0.dtd"
   xmlns:inkscape="http://www.inkscape.org/namespaces/inkscape"
   width="73.347076mm"
   height="72.225311mm"
   viewBox="0 0 73.347076 72.225312"
   version="1.1"
   id="svg5469"
   inkscape:version="0.92.1 r15371"
   sodipodi:docname="essaimage.svg">
  <defs
     id="defs5463" />
  <sodipodi:namedview
     id="base"
     pagecolor="#ffffff"
     bordercolor="#666666"
     borderopacity="1.0"
     inkscape:pageopacity="0.0"
     inkscape:pageshadow="2"
     inkscape:zoom="1.4"
     inkscape:cx="-294.49398"
     inkscape:cy="4.7018199"
     inkscape:document-units="mm"
     inkscape:current-layer="layer1"
     showgrid="false"
     fit-margin-top="0"
     fit-margin-left="0"
     fit-margin-right="0"
     fit-margin-bottom="0"
     inkscape:window-width="1920"
     inkscape:window-height="1016"
     inkscape:window-x="0"
     inkscape:window-y="27"
     inkscape:window-maximized="1" />
  <metadata
     id="metadata5466">
    <rdf:RDF>
      <cc:Work
         rdf:about="">
        <dc:format>image/svg+xml</dc:format>
        <dc:type
           rdf:resource="http://purl.org/dc/dcmitype/StillImage" />
        <dc:title></dc:title>
      </cc:Work>
    </rdf:RDF>
  </metadata>
  <g
     inkscape:label="Calque 1"
     inkscape:groupmode="layer"
     id="layer1"
     transform="translate(382.1433,121.1454)">
    <path
       id="path5663"
       style="color:#000000;fill:#ffffff;fill-opacity:1;fill-rule:evenodd;stroke:#000000;stroke-width:1.05833328;stroke-miterlimit:4;stroke-dasharray:none;stroke-opacity:1"
       d="m -325.70001,-83.301395 c -6.35183,8.406342 -13.00112,10.671254 -14.45689,18.649844 -1.08645,5.947595 3.22247,11.630422 9.35594,12.630626 6.13351,1.000178 11.89754,-3.03866 12.87076,-9.006099 0.97303,-5.967068 -4.06728,-12.537757 -7.76981,-22.274371 z m 12.64642,18.962767 c -3.00791,3.980921 -6.15603,5.061955 -6.84554,8.840311 -0.5144,2.816437 1.52459,5.503757 4.42913,5.97744 2.90457,0.473657 5.6247,-1.43711 6.08547,-4.262808 0.46085,-2.825697 -1.91569,-5.943891 -3.66906,-10.554943 z m -39.16913,-55.724482 c -12.77075,16.90177 -26.12612,21.452818 -29.05342,37.493209 -2.1844,11.958108 6.46804,23.37263 18.79989,25.383569 12.33184,2.010966 23.93371,-6.098249 25.89025,-18.095833 1.95646,-11.997584 -8.19145,-25.204945 -15.63672,-44.780945 z"
       inkscape:connector-curvature="0"
       sodipodi:nodetypes="ccsscccsccccssc" />
  </g>
</svg>
