<?xml version="1.0" encoding="UTF-8" standalone="no"?>
<!-- Created with Inkscape (http://www.inkscape.org/) -->

<svg
   xmlns:dc="http://purl.org/dc/elements/1.1/"
   xmlns:cc="http://creativecommons.org/ns#"
   xmlns:rdf="http://www.w3.org/1999/02/22-rdf-syntax-ns#"
   xmlns:svg="http://www.w3.org/2000/svg"
   xmlns="http://www.w3.org/2000/svg"
   xmlns:sodipodi="http://sodipodi.sourceforge.net/DTD/sodipodi-0.dtd"
   xmlns:inkscape="http://www.inkscape.org/namespaces/inkscape"
   version="1.1"
   id="svg2"
   xml:space="preserve"
   width="327.45163"
   height="334.69199"
   viewBox="0 0 327.45163 334.69199"
   sodipodi:docname="logo-oxytanet.svg"
   inkscape:version="0.92.1 r15371"
   inkscape:export-filename="/home/numahell/Dev/altermediatic/front-chatons/favicon.png"
   inkscape:export-xdpi="18.644009"
   inkscape:export-ydpi="18.644009"><metadata
     id="metadata8"><rdf:RDF><cc:Work
         rdf:about=""><dc:format>image/svg+xml</dc:format><dc:type
           rdf:resource="http://purl.org/dc/dcmitype/StillImage" /><dc:title></dc:title></cc:Work></rdf:RDF></metadata><defs
     id="defs6"><clipPath
       clipPathUnits="userSpaceOnUse"
       id="clipPath20"><path
         d="M 0,425.197 H 425.197 V 0 H 0 Z"
         id="path18"
         inkscape:connector-curvature="0" /></clipPath></defs><sodipodi:namedview
     pagecolor="#ffffff"
     bordercolor="#666666"
     borderopacity="1"
     objecttolerance="10"
     gridtolerance="10"
     guidetolerance="10"
     inkscape:pageopacity="0"
     inkscape:pageshadow="2"
     inkscape:window-width="1920"
     inkscape:window-height="1016"
     id="namedview4"
     showgrid="false"
     inkscape:zoom="1.177411"
     inkscape:cx="222.34114"
     inkscape:cy="76.753595"
     inkscape:window-x="0"
     inkscape:window-y="27"
     inkscape:window-maximized="1"
     inkscape:current-layer="g10"
     showguides="false"
     fit-margin-top="0"
     fit-margin-left="0"
     fit-margin-right="0"
     fit-margin-bottom="0" /><g
     id="g10"
     inkscape:groupmode="layer"
     inkscape:label="OC-1706-instit-logo carre-NB-fondblanc-150x150"
     transform="matrix(1.3333333,0,0,-1.3333333,-114.5232,504.87453)"><g
       id="g38"
       transform="translate(221.6494,361.34791)"
       style="fill:#ab080e;fill-opacity:1"><path
         d="m 0,0 c 1.29,1.795 2.057,3.99 2.057,6.369 0,6.041 -4.898,10.939 -10.939,10.939 -6.041,0 -10.939,-4.898 -10.939,-10.939 0,-2.829 1.083,-5.399 2.846,-7.341 -9.419,-11.397 -21.781,-18.319 -26.558,-20.721 -1.674,3.896 -5.543,6.625 -10.052,6.625 -6.041,0 -10.939,-4.897 -10.939,-10.939 0,-6.041 4.898,-10.939 10.939,-10.939 2.472,0 4.745,0.83 6.577,2.213 12.084,-18.614 15.5,-40.613 16.462,-51.623 -11.028,0.947 -33.063,4.338 -51.685,16.441 1.311,1.804 2.093,4.016 2.093,6.416 0,6.042 -4.898,10.939 -10.939,10.939 -6.041,0 -10.939,-4.897 -10.939,-10.939 0,-4.542 2.768,-8.435 6.71,-10.089 -2.739,-5.487 -10.594,-19.731 -21.542,-27.138 -1.995,2.127 -4.823,3.463 -7.97,3.463 -6.041,0 -10.939,-4.897 -10.939,-10.939 0,-6.041 4.898,-10.939 10.939,-10.939 3.156,0 5.99,1.344 7.987,3.481 10.944,-7.415 18.794,-21.674 21.526,-27.154 -3.942,-1.654 -6.711,-5.548 -6.711,-10.091 0,-6.041 4.898,-10.939 10.939,-10.939 6.041,0 10.939,4.898 10.939,10.939 0,2.401 -0.782,4.613 -2.093,6.417 18.629,12.108 40.677,15.497 51.698,16.443 -0.947,-10.993 -4.342,-32.946 -16.475,-51.625 -1.832,1.382 -4.105,2.212 -6.577,2.212 -6.041,0 -10.939,-4.897 -10.939,-10.938 0,-6.042 4.898,-10.939 10.939,-10.939 4.511,0 8.382,2.731 10.055,6.63 4.775,-2.385 17.121,-9.269 26.56,-20.72 -1.765,-1.943 -2.851,-4.515 -2.851,-7.347 0,-6.041 4.898,-10.939 10.939,-10.939 6.041,0 10.939,4.898 10.939,10.939 0,2.379 -0.768,4.574 -2.057,6.37 -9.396,16.127 -24.494,26.444 -33.305,31.429 16.58,28.422 16.547,60.587 16.536,62.043 l -0.049,6.589 -6.589,0.06 c -1.458,0.016 -33.628,0.1 -62.05,-16.458 -3.706,6.706 -10.247,16.916 -19.147,24.551 8.898,7.629 15.437,17.827 19.144,24.525 28.421,-16.558 60.59,-16.481 62.053,-16.46 l 6.589,0.06 0.049,6.589 c 0.011,1.456 0.044,33.621 -16.536,62.043 C -24.493,-26.445 -9.396,-16.127 0,0"
         style="fill:#ab080e;fill-opacity:1;fill-rule:nonzero;stroke:none"
         id="path40"
         inkscape:connector-curvature="0" /></g><path
       inkscape:connector-curvature="0"
       style="fill:#f9dc00;fill-opacity:1;stroke-width:7.50000048"
       d="m 271.48113,253.25883 c 0,-12.40501 -5.0475,-23.655 -13.1925,-31.80751 0,0 -6.86476,-1.2604 -9.1561,0.92341 -2.29133,2.18382 -1.4489,9.68159 -1.4489,9.68159 5.43,5.43 8.7975,12.93001 8.7975,21.20251 0,8.27249 -3.3675,15.7725 -8.7975,21.2025 0,0 -0.63049,7.35647 1.62407,9.50643 2.25455,2.14995 8.98093,1.09857 8.98093,1.09857 8.145,-8.14501 13.1925,-19.395 13.1925,-31.8075 z m 8.0325,53.03249 c 14.1675,-14.16749 21.9675,-32.99999 21.9675,-53.03249 0,-20.0325 -7.8,-38.86501 -21.9675,-53.03251 0,0 -7.35175,-1.54397 -9.68159,0.74824 -2.32984,2.29222 -0.92341,9.85676 -0.92341,9.85676 11.3325,11.3325 17.5725,26.4 17.5725,42.42751 0,16.02749 -6.24,31.09499 -17.5725,42.42749 0,0 -1.26893,7.77737 1.09857,10.03192 2.3675,2.25455 9.50643,0.57308 9.50643,0.57308 z m 43.71001,-93.90749 c -5.28751,-12.50251 -12.8625,-23.73001 -22.5,-33.37501 v 0 c 0,0 -7.1003,-1.85582 -9.50643,0.39792 -2.40614,2.25375 -1.09858,10.20708 -1.09858,10.20708 16.995,17.0025 26.36251,39.60001 26.36251,63.63751 0,24.03749 -9.36001,46.6425 -26.36251,63.6375 0,0 -1.40643,7.56453 0.92341,9.85675 2.32984,2.29222 9.6816,0.74825 9.6816,0.74825 9.6375,-9.6375 17.21249,-20.8725 22.5,-33.375 5.47499,-12.9525 8.25749,-26.70001 8.25749,-40.87501 0,-14.175 -2.77499,-27.9225 -8.25749,-40.875 z m -89.24251,48.375 c 4.14,0 7.5,-3.36 7.5,-7.5 0,-4.14001 -3.36,-7.50001 -7.5,-7.50001 -4.14,0 -7.5,3.36 -7.5,7.50001 0,4.14 3.36,7.5 7.5,7.5 z"
       id="path4942"
       sodipodi:nodetypes="sczcsczcscsczcsczcccczcsczccsccsssss" /></g></svg>