<?xml version="1.0" encoding="UTF-8" standalone="no"?>
<!-- Created with Inkscape (http://www.inkscape.org/) -->

<svg
   xmlns:dc="http://purl.org/dc/elements/1.1/"
   xmlns:cc="http://creativecommons.org/ns#"
   xmlns:rdf="http://www.w3.org/1999/02/22-rdf-syntax-ns#"
   xmlns:svg="http://www.w3.org/2000/svg"
   xmlns="http://www.w3.org/2000/svg"
   xmlns:sodipodi="http://sodipodi.sourceforge.net/DTD/sodipodi-0.dtd"
   xmlns:inkscape="http://www.inkscape.org/namespaces/inkscape"
   width="665"
   height="641"
   id="svg2"
   version="1.1"
   inkscape:version="0.92.1 r15371"
   sodipodi:docname="Net-Neutrality-outline.svg"
   inkscape:export-filename="C:\Users\Camus\Desktop\netneutrality modern template.png"
   inkscape:export-xdpi="90"
   inkscape:export-ydpi="90">
  <defs
     id="defs4" />
  <sodipodi:namedview
     id="base"
     pagecolor="#ffffff"
     bordercolor="#666666"
     borderopacity="1.0"
     inkscape:pageopacity="0.0"
     inkscape:pageshadow="2"
     inkscape:zoom="0.5"
     inkscape:cx="-8.56295"
     inkscape:cy="317.54511"
     inkscape:document-units="px"
     inkscape:current-layer="layer1"
     showgrid="false"
     inkscape:window-width="1920"
     inkscape:window-height="1016"
     inkscape:window-x="0"
     inkscape:window-y="27"
     inkscape:window-maximized="1"
     fit-margin-top="0"
     fit-margin-left="0"
     fit-margin-right="0"
     fit-margin-bottom="0">
    <inkscape:grid
       type="xygrid"
       id="grid20791"
       empspacing="5"
       visible="true"
       enabled="true"
       snapvisiblegridlinesonly="true"
       originx="-25.5"
       originy="-101.48718"
       spacingx="1"
       spacingy="1" />
  </sodipodi:namedview>
  <metadata
     id="metadata7">
    <rdf:RDF>
      <cc:Work
         rdf:about="">
        <dc:format>image/svg+xml</dc:format>
        <dc:type
           rdf:resource="http://purl.org/dc/dcmitype/StillImage" />
        <dc:title></dc:title>
      </cc:Work>
    </rdf:RDF>
  </metadata>
  <g
     inkscape:label="Layer 1"
     inkscape:groupmode="layer"
     id="layer1"
     transform="translate(-25.5,-309.875)">
    <path
       sodipodi:type="arc"
       style="fill:#000000;stroke:#000000;stroke-width:1;stroke-linecap:round;stroke-miterlimit:4;stroke-opacity:1;stroke-dasharray:none;stroke-dashoffset:0"
       id="path20949"
       sodipodi:cx="360"
       sodipodi:cy="532.36218"
       sodipodi:rx="320"
       sodipodi:ry="320"
       d="m 680,532.36218 a 320,320 0 0 1 -320,320 320,320 0 0 1 -320,-320 320,320 0 0 1 320,-320 320,320 0 0 1 320,320 z"
       transform="matrix(0.90059298,0,0,0.90059298,30.856071,151.39127)" />
    <path
       transform="matrix(0.85763433,0,0,0.85763433,46.321186,174.26083)"
       d="m 680,532.36218 a 320,320 0 0 1 -320,320 320,320 0 0 1 -320,-320 320,320 0 0 1 320,-320 320,320 0 0 1 320,320 z"
       sodipodi:ry="320"
       sodipodi:rx="320"
       sodipodi:cy="532.36218"
       sodipodi:cx="360"
       id="path20928"
       style="fill:#ffffff;stroke:#000000;stroke-width:1;stroke-linecap:round;stroke-miterlimit:4;stroke-opacity:1;stroke-dasharray:none;stroke-dashoffset:0;fill-opacity:1"
       sodipodi:type="arc" />
    <path
       inkscape:connector-curvature="0"
       style="fill:#000000;fill-opacity:1;stroke:#000000;stroke-width:0.74889398px;stroke-linecap:butt;stroke-linejoin:miter;stroke-opacity:1"
       d="m 355.08097,399.75712 c -2.77123,0 -5.53701,0.0437 -8.28464,0.14041 l 0,46.59525 0,19.70527 63.70279,64.45169 0,111.632 C 354.43691,583.69358 239.7513,471.69774 239.7513,471.69774 l 0,151.65103 -115.63391,0 c -0.0791,2.48511 -0.11701,4.98461 -0.11701,7.48894 0,2.50836 0.0377,4.99984 0.11701,7.48893 l 130.56498,0 0,-8.61228 0.0468,0 0,-121.27401 c 57.46679,56.3547 114.08214,114.03533 170.74782,170.70102 l 0,-153.52326 0.21062,-0.98293 -63.16452,-63.16452 0,-61.59653 c -2.47739,-0.0786 -4.94565,-0.11701 -7.44213,-0.11701 z m 157.96981,62.46243 -79.87422,79.87422 -0.21062,0 0,0.21063 -0.30424,0.30424 0.30424,0.30423 0,154.78702 -154.78702,-153.96791 -0.98292,0.98292 0,-1.12334 -14.97788,-14.97788 0,181.44296 -77.20629,77.20629 c 3.38397,3.67703 6.8711,7.24414 10.48452,10.69514 l 81.37201,-81.37201 0.32764,0 0,-0.32764 0.21062,-0.21062 -0.21062,-0.21063 0,-151.97867 155.76994,154.97424 0,0.7489 14.97788,14.97788 0,-186.02994 75.70849,-75.7085 c -3.41903,-3.64645 -6.95459,-7.183 -10.60153,-10.60153 z m -228.20202,119.19115 0,153.52326 -0.21063,0.98293 63.16452,63.16452 0,62.69647 c 2.41562,0.0747 4.84458,0.14041 7.27832,0.14041 2.83397,0 5.63918,-0.0627 8.44846,-0.16382 l 0,-46.19739 0,-1.49779 0,-19.70527 -63.70279,-64.45169 0,-111.632 c 56.0622,58.58816 170.74782,170.584 170.74782,170.584 l 0,-151.65103 115.47008,0 c 0.0572,-2.11487 0.0936,-4.23691 0.0936,-6.36559 0,-2.88128 -0.0592,-5.75656 -0.16382,-8.61229 l -130.33095,0 0,8.61229 -0.0468,0 0,121.27401 C 398.12979,695.75702 341.51444,638.07639 284.84876,581.4107 z"
       id="path20839" />
    <path
       sodipodi:type="arc"
       style="fill:#000000;fill-opacity:1;stroke:#000000;stroke-width:1;stroke-linecap:round;stroke-miterlimit:4;stroke-opacity:1;stroke-dasharray:none;stroke-dashoffset:0"
       id="path20914"
       sodipodi:cx="650"
       sodipodi:cy="842.36218"
       sodipodi:rx="50"
       sodipodi:ry="50"
       d="m 700,842.36218 a 50,50 0 0 1 -50,50 50,50 0 0 1 -50,-50 50,50 0 0 1 50,-50 50,50 0 0 1 50,50 z"
       transform="matrix(0.74889395,0,0,0.74889395,-131.74691,238.27686)" />
    <path
       transform="matrix(0.74889395,0,0,0.74889395,-131.74691,-239.51748)"
       d="m 700,842.36218 a 50,50 0 0 1 -50,50 50,50 0 0 1 -50,-50 50,50 0 0 1 50,-50 50,50 0 0 1 50,50 z"
       sodipodi:ry="50"
       sodipodi:rx="50"
       sodipodi:cy="842.36218"
       sodipodi:cx="650"
       id="path20918"
       style="fill:#000000;fill-opacity:1;stroke:#000000;stroke-width:1;stroke-linecap:round;stroke-miterlimit:4;stroke-opacity:1;stroke-dasharray:none;stroke-dashoffset:0"
       sodipodi:type="arc" />
    <path
       sodipodi:type="arc"
       style="fill:#000000;fill-opacity:1;stroke:#000000;stroke-width:1;stroke-linecap:round;stroke-miterlimit:4;stroke-opacity:1;stroke-dasharray:none;stroke-dashoffset:0"
       id="path20920"
       sodipodi:cx="650"
       sodipodi:cy="842.36218"
       sodipodi:rx="50"
       sodipodi:ry="50"
       d="m 700,842.36218 a 50,50 0 0 1 -50,50 50,50 0 0 1 -50,-50 50,50 0 0 1 50,-50 50,50 0 0 1 50,50 z"
       transform="matrix(0.74889395,0,0,0.74889395,36.005339,-169.12145)" />
    <path
       transform="matrix(0.74889395,0,0,0.74889395,106.40137,-2.866994)"
       d="m 700,842.36218 a 50,50 0 0 1 -50,50 50,50 0 0 1 -50,-50 50,50 0 0 1 50,-50 50,50 0 0 1 50,50 z"
       sodipodi:ry="50"
       sodipodi:rx="50"
       sodipodi:cy="842.36218"
       sodipodi:cx="650"
       id="path20922"
       style="fill:#000000;fill-opacity:1;stroke:#000000;stroke-width:1;stroke-linecap:round;stroke-miterlimit:4;stroke-opacity:1;stroke-dasharray:none;stroke-dashoffset:0"
       sodipodi:type="arc" />
    <path
       sodipodi:type="arc"
       style="fill:#000000;fill-opacity:1;stroke:#000000;stroke-width:1;stroke-linecap:round;stroke-miterlimit:4;stroke-opacity:1;stroke-dasharray:none;stroke-dashoffset:0"
       id="path20924"
       sodipodi:cx="650"
       sodipodi:cy="842.36218"
       sodipodi:rx="50"
       sodipodi:ry="50"
       d="m 700,842.36218 a 50,50 0 0 1 -50,50 50,50 0 0 1 -50,-50 50,50 0 0 1 50,-50 50,50 0 0 1 50,50 z"
       transform="matrix(0.74889395,0,0,0.74889395,-369.89518,-2.866994)" />
    <path
       transform="matrix(0.74889395,0,0,0.74889395,-303.99251,163.38746)"
       d="m 700,842.36218 a 50,50 0 0 1 -50,50 50,50 0 0 1 -50,-50 50,50 0 0 1 50,-50 50,50 0 0 1 50,50 z"
       sodipodi:ry="50"
       sodipodi:rx="50"
       sodipodi:cy="842.36218"
       sodipodi:cx="650"
       id="path20926"
       style="fill:#000000;fill-opacity:1;stroke:#000000;stroke-width:1;stroke-linecap:round;stroke-miterlimit:4;stroke-opacity:1;stroke-dasharray:none;stroke-dashoffset:0"
       sodipodi:type="arc" />
    <path
       sodipodi:nodetypes="ccccc"
       inkscape:connector-curvature="0"
       id="path20935"
       d="m 107.83963,606.94439 15.84583,0 0,42.05712 -15.84583,0 z"
       style="fill:#ffffff;fill-opacity:1;stroke:#000000;stroke-width:0.62982917;stroke-linecap:round;stroke-miterlimit:4;stroke-opacity:1;stroke-dashoffset:0" />
    <path
       transform="matrix(0.3484952,0,0,0.3484952,296.26452,168.15931)"
       d="m 700,842.36218 a 50,50 0 0 1 -50,50 50,50 0 0 1 -50,-50 50,50 0 0 1 50,-50 50,50 0 0 1 50,50 z"
       sodipodi:ry="50"
       sodipodi:rx="50"
       sodipodi:cy="842.36218"
       sodipodi:cx="650"
       id="path20939"
       style="fill:#ffffff;fill-opacity:1;stroke:#000000;stroke-width:1;stroke-linecap:round;stroke-miterlimit:4;stroke-opacity:1;stroke-dasharray:none;stroke-dashoffset:0"
       sodipodi:type="arc" />
    <path
       sodipodi:type="arc"
       style="fill:#ffffff;fill-opacity:1;stroke:#000000;stroke-width:1;stroke-linecap:round;stroke-miterlimit:4;stroke-opacity:1;stroke-dasharray:none;stroke-dashoffset:0"
       id="path20941"
       sodipodi:cx="650"
       sodipodi:cy="842.36218"
       sodipodi:rx="50"
       sodipodi:ry="50"
       d="m 700,842.36218 a 50,50 0 0 1 -50,50 50,50 0 0 1 -50,-50 50,50 0 0 1 50,-50 50,50 0 0 1 50,50 z"
       transform="matrix(0.3484952,0,0,0.3484952,-45.23112,500.66822)" />
    <path
       style="fill:#ffffff;fill-opacity:1;stroke:#000000;stroke-width:0.62982917;stroke-linecap:round;stroke-miterlimit:4;stroke-opacity:1;stroke-dashoffset:0"
       d="m 587.13176,606.94439 15.84583,0 0,42.05712 -15.84583,0 z"
       id="path20943"
       inkscape:connector-curvature="0"
       sodipodi:nodetypes="ccccc" />
    <path
       sodipodi:nodetypes="ccccc"
       inkscape:connector-curvature="0"
       id="path20945"
       d="m 347.48569,368.79611 15.84583,0 0,42.05712 -15.84583,0 z"
       style="fill:#ffffff;fill-opacity:1;stroke:#000000;stroke-width:0.62982917;stroke-linecap:round;stroke-miterlimit:4;stroke-opacity:1;stroke-dashoffset:0" />
    <path
       style="fill:#ffffff;fill-opacity:1;stroke:#000000;stroke-width:0.62982917;stroke-linecap:round;stroke-miterlimit:4;stroke-opacity:1;stroke-dashoffset:0"
       d="m 347.48569,849.58603 15.84583,0 0,42.05712 -15.84583,0 z"
       id="path20947"
       inkscape:connector-curvature="0"
       sodipodi:nodetypes="ccccc" />
  </g>
</svg>
