<?xml version="1.0" encoding="UTF-8" standalone="no"?>
<!-- Created with Inkscape (http://www.inkscape.org/) -->

<svg
   xmlns:dc="http://purl.org/dc/elements/1.1/"
   xmlns:cc="http://creativecommons.org/ns#"
   xmlns:rdf="http://www.w3.org/1999/02/22-rdf-syntax-ns#"
   xmlns:svg="http://www.w3.org/2000/svg"
   xmlns="http://www.w3.org/2000/svg"
   xmlns:sodipodi="http://sodipodi.sourceforge.net/DTD/sodipodi-0.dtd"
   xmlns:inkscape="http://www.inkscape.org/namespaces/inkscape"
   width="23.156219mm"
   height="22.221474mm"
   viewBox="0 0 23.156219 22.221474"
   version="1.1"
   id="svg5188"
   inkscape:version="0.92.1 r15371"
   sodipodi:docname="solidarity.svg">
  <defs
     id="defs5182" />
  <sodipodi:namedview
     id="base"
     pagecolor="#ffffff"
     bordercolor="#666666"
     borderopacity="1.0"
     inkscape:pageopacity="0.0"
     inkscape:pageshadow="2"
     inkscape:zoom="5.6"
     inkscape:cx="47.877648"
     inkscape:cy="51.182484"
     inkscape:document-units="mm"
     inkscape:current-layer="layer1"
     showgrid="false"
     fit-margin-top="0"
     fit-margin-left="0"
     fit-margin-right="0"
     fit-margin-bottom="0"
     inkscape:window-width="1920"
     inkscape:window-height="1016"
     inkscape:window-x="0"
     inkscape:window-y="27"
     inkscape:window-maximized="1" />
  <metadata
     id="metadata5185">
    <rdf:RDF>
      <cc:Work
         rdf:about="">
        <dc:format>image/svg+xml</dc:format>
        <dc:type
           rdf:resource="http://purl.org/dc/dcmitype/StillImage" />
        <dc:title></dc:title>
      </cc:Work>
    </rdf:RDF>
  </metadata>
  <g
     inkscape:label="Calque 1"
     inkscape:groupmode="layer"
     id="layer1"
     transform="translate(-12.612374,-14.502359)">
    <path
       inkscape:connector-curvature="0"
       style="fill:#0a0a0a;stroke-width:0.35277778"
       d="m 20.879802,14.502359 c 1.24178,1.36525 2.413,2.804583 3.31611,4.427361 -1.89442,0.179917 -3.76767,0.60325 -5.67619,0.596194 0.77963,-0.797277 1.69333,-1.435805 2.62466,-2.046111 -2.52941,-1.051278 -6.18772,0.592667 -6.25122,3.541889 -0.24694,2.543528 1.53811,4.55789 2.87514,6.508751 -0.55386,-0.119944 -1.10067,-0.243417 -1.64042,-0.373944 -0.0106,0.53975 -0.0141,1.083027 -0.0141,1.626305 -1.66864,-2.187222 -3.37961,-4.596695 -3.49955,-7.44714 -0.0635,-2.134305 1.50988,-3.944055 3.36902,-4.787194 1.41111,-0.546806 2.93864,-0.754945 4.44853,-0.649111 0.14111,-0.469195 0.28928,-0.934862 0.44803,-1.397 z"
       id="path400" />
    <path
       inkscape:connector-curvature="0"
       style="fill:#0a0a0a;stroke-width:0.35277778"
       d="m 29.095992,16.682525 c 2.0567,-0.493889 4.42031,0.299861 5.63386,2.06375 1.00542,1.386417 1.33351,3.291417 0.75142,4.917723 -0.30339,1.023056 -1.04775,1.820334 -1.61572,2.702278 0.59267,-0.0035 1.19239,-0.01058 1.79564,-0.02469 -1.87325,1.224139 -3.53836,2.737555 -5.40456,3.975805 -0.0388,-2.120194 0.0212,-4.265083 -0.45155,-6.346473 0.52564,0.691445 1.2065,1.227668 2.00377,1.583973 1.49931,-1.262945 2.45534,-3.393723 1.74978,-5.319889 -0.62441,-1.333501 -2.00025,-2.504723 -3.556,-2.321278 -1.85208,0.155222 -3.175,1.689805 -4.13808,3.136194 0.0776,-0.557389 0.15522,-1.118305 0.23636,-1.672166 -0.57856,0.05292 -1.15006,0.109361 -1.72156,0.165805 1.33703,-1.280583 2.90337,-2.384778 4.71664,-2.861028 z"
       id="path412" />
    <path
       inkscape:connector-curvature="0"
       style="fill:#0a0a0a;stroke-width:0.35277778"
       d="m 22.703662,34.720054 c 1.53811,-1.770944 3.12561,-3.52425 4.25097,-5.598583 -0.0212,0.765528 -0.06,1.531055 -0.10936,2.300111 0.7232,-0.162278 1.45345,-0.3175 2.19075,-0.451556 -2.27894,1.866195 -4.63903,3.640667 -6.70278,5.753806 -0.89252,-1.552222 -2.00025,-2.959805 -2.9845,-4.452056 -0.2293,0.398639 -0.45861,0.797278 -0.68439,1.199445 -0.58208,-1.319389 -1.25588,-2.6035 -1.70038,-3.975806 1.67922,0.296334 3.24908,0.991306 4.89302,1.425222 -0.60677,0.130528 -1.21002,0.275167 -1.80622,0.430389 0.64911,1.294695 1.74625,2.264834 2.65289,3.369028 z"
       id="path488" />
  </g>
</svg>
